<?xml version="1.0" encoding="utf-8"?>
<!-- Generator: Adobe Illustrator 16.0.0, SVG Export Plug-In . SVG Version: 6.00 Build 0)  -->
<!DOCTYPE svg PUBLIC "-//W3C//DTD SVG 1.1//EN" "http://www.w3.org/Graphics/SVG/1.1/DTD/svg11.dtd">
<svg version="1.1" id="Layer_1" xmlns="http://www.w3.org/2000/svg" xmlns:xlink="http://www.w3.org/1999/xlink" x="0px" y="0px"
	 width="50px" height="50px" viewBox="-245.5 34.5 50 50" enable-background="new -245.5 34.5 50 50" xml:space="preserve">
<path d="M-214.995,73.736v2.527c0,0.398-0.312,0.723-0.694,0.723h-9.307c-0.383,0-0.694-0.324-0.694-0.723v-2.527
	c0-0.398,0.311-0.721,0.694-0.721h9.307C-215.307,73.016-214.995,73.338-214.995,73.736z M-227.198,73.016h-9.307
	c-0.383,0-0.694,0.322-0.694,0.721v2.527c0,0.398,0.311,0.723,0.694,0.723h9.307c0.383,0,0.694-0.324,0.694-0.723v-2.527
	C-226.504,73.338-226.815,73.016-227.198,73.016z M-204.085,68.141h-9.307c-0.384,0-0.694,0.324-0.694,0.723v2.527
	c0,0.396,0.31,0.721,0.694,0.721h9.307c0.382,0,0.694-0.324,0.694-0.721v-2.527C-203.391,68.465-203.703,68.141-204.085,68.141z
	 M-213.083,62.363c-0.159,0.326-0.332,0.642-0.521,0.949c0.067-0.023,0.136-0.045,0.211-0.045h9.307
	c0.382,0,0.694,0.324,0.694,0.721v2.527c0,0.4-0.312,0.721-0.694,0.721h-9.307c-0.384,0-0.694-0.32-0.694-0.721v-2.482
	c-1.424,1.954-3.47,3.422-5.851,4.107h4.247c0.382,0,0.694,0.324,0.694,0.723v2.527c0,0.396-0.312,0.721-0.694,0.721h-9.307
	c-0.383,0-0.694-0.324-0.694-0.721v-2.527c0-0.234,0.115-0.434,0.282-0.566c-4.901-1.11-8.574-5.494-8.574-10.726
	c0-6.069,4.937-11.008,11.006-11.008c6.069,0,11.007,4.938,11.007,11.008c0,0.277-0.021,0.549-0.042,0.821h7.926
	c0.382,0,0.694,0.324,0.694,0.723v2.527c0,0.398-0.312,0.721-0.694,0.721H-213.083z M-212.969,57.571
	c0-5.519-4.489-10.008-10.007-10.008c-5.517,0-10.006,4.489-10.006,10.008c0,5.518,4.489,10.006,10.006,10.006
	C-217.458,67.577-212.969,63.089-212.969,57.571z M-204.085,73.016h-9.307c-0.384,0-0.694,0.322-0.694,0.721v2.527
	c0,0.398,0.31,0.723,0.694,0.723h9.307c0.382,0,0.694-0.324,0.694-0.723v-2.527C-203.391,73.338-203.703,73.016-204.085,73.016z
	 M-218.782,50.248c1.283,0.736,2.354,1.8,3.099,3.077c0.093,0.159,0.261,0.248,0.433,0.248c0.085,0,0.172-0.021,0.251-0.068
	c0.238-0.139,0.319-0.445,0.18-0.684c-0.833-1.428-2.031-2.618-3.465-3.44c-0.241-0.138-0.546-0.056-0.683,0.185
	C-219.104,49.805-219.021,50.11-218.782,50.248z M-214.039,57.053c-0.276,0-0.5,0.242-0.5,0.519c0,1.483-0.39,2.94-1.127,4.216
	c-0.139,0.238-0.057,0.545,0.182,0.683c0.079,0.046,0.165,0.067,0.25,0.067c0.173,0,0.341-0.09,0.433-0.25
	c0.826-1.427,1.262-3.058,1.262-4.716v-0.037C-213.539,57.258-213.762,57.053-214.039,57.053z M-227.466,50.342
	c0.085,0,0.172-0.021,0.251-0.068c1.273-0.74,2.73-1.136,4.213-1.141c0.276-0.001,0.499-0.226,0.498-0.502
	c-0.001-0.275-0.225-0.498-0.5-0.498c0,0-0.001,0-0.002,0c-1.658,0.006-3.288,0.447-4.712,1.277
	c-0.239,0.139-0.319,0.444-0.181,0.684C-227.806,50.253-227.638,50.342-227.466,50.342z M-230.478,52.687
	c-0.241-0.138-0.545-0.056-0.683,0.185c-0.819,1.423-1.251,3.049-1.251,4.716l0.5,0.002h-0.5c0,0.276,0.224,0.491,0.5,0.491
	c0.276,0,0.5-0.232,0.5-0.509c0-1.477,0.387-2.93,1.119-4.202C-230.156,53.13-230.239,52.824-230.478,52.687z M-218.752,64.877
	c-1.276,0.739-2.733,1.13-4.215,1.131c-0.276,0-0.5,0.225-0.5,0.5c0,0.276,0.224,0.5,0.5,0.5c0,0,0,0,0,0
	c1.657-0.001,3.288-0.438,4.715-1.266c0.239-0.139,0.321-0.444,0.182-0.684C-218.207,64.819-218.514,64.738-218.752,64.877z
	 M-227.185,64.886c-1.28-0.737-2.35-1.804-3.092-3.082c-0.14-0.24-0.445-0.321-0.683-0.182c-0.239,0.139-0.32,0.445-0.181,0.684
	c0.83,1.43,2.025,2.621,3.457,3.447c0.079,0.045,0.165,0.066,0.25,0.066c0.173,0,0.341-0.09,0.434-0.25
	C-226.863,65.33-226.946,65.024-227.185,64.886z M-222.171,56.841c0.183-0.064,0.321-0.16,0.413-0.291
	c0.092-0.127,0.14-0.277,0.14-0.447c0-0.176-0.044-0.324-0.132-0.449c-0.087-0.125-0.215-0.213-0.381-0.266
	c-0.166-0.053-0.462-0.078-0.89-0.078h-0.732v1.627h0.732C-222.637,56.937-222.355,56.905-222.171,56.841z M-222.043,58.022
	c-0.186-0.07-0.467-0.105-0.847-0.105h-0.864v1.445c0.003,0.205,0.011,0.326,0.023,0.359c0.016,0.045,0.042,0.076,0.079,0.094
	c0.037,0.018,0.136,0.025,0.298,0.025h0.488c0.283,0,0.518-0.025,0.705-0.078c0.186-0.051,0.344-0.162,0.475-0.328
	s0.196-0.365,0.196-0.598c0-0.197-0.045-0.365-0.138-0.502C-221.72,58.198-221.858,58.093-222.043,58.022z M-215.368,57.571
	c0,4.201-3.407,7.605-7.608,7.605s-7.606-3.404-7.606-7.605c0-4.203,3.405-7.607,7.606-7.607S-215.368,53.368-215.368,57.571z
	 M-219.756,59.013c0-0.295-0.071-0.564-0.21-0.805c-0.141-0.242-0.331-0.43-0.569-0.563c-0.167-0.098-0.406-0.184-0.718-0.264
	c0.292-0.1,0.526-0.225,0.704-0.377c0.178-0.15,0.313-0.326,0.407-0.523c0.095-0.197,0.142-0.406,0.142-0.627
	c0-0.303-0.089-0.582-0.267-0.836c-0.179-0.252-0.434-0.447-0.766-0.584c-0.128-0.053-0.281-0.092-0.447-0.123v-1.178h-1.131v1.098
	h-0.727v-1.098h-1.132v1.098h-1.725v0.924h0.264c0.176,0,0.294,0.016,0.356,0.049c0.063,0.029,0.106,0.074,0.132,0.129
	c0.026,0.053,0.039,0.18,0.039,0.379v3.723c0,0.195-0.012,0.32-0.039,0.375c-0.025,0.057-0.069,0.1-0.132,0.131
	c-0.062,0.029-0.18,0.045-0.356,0.045h-0.264v0.924h1.725v1.098h1.132v-1.098h0.642c0.029,0,0.056-0.002,0.084-0.002v1.1h1.131
	v-1.193c0.189-0.037,0.356-0.082,0.499-0.139c0.39-0.156,0.692-0.385,0.905-0.684C-219.863,59.694-219.756,59.368-219.756,59.013z"
	/>
</svg>
