<?xml version="1.0" encoding="utf-8"?>
<!-- Generator: Adobe Illustrator 16.0.0, SVG Export Plug-In . SVG Version: 6.00 Build 0)  -->
<!DOCTYPE svg PUBLIC "-//W3C//DTD SVG 1.1//EN" "http://www.w3.org/Graphics/SVG/1.1/DTD/svg11.dtd">
<svg version="1.1" id="Layer_1" xmlns="http://www.w3.org/2000/svg" xmlns:xlink="http://www.w3.org/1999/xlink" x="0px" y="0px"
	 width="50px" height="50px" viewBox="104.5 34.5 50 50" enable-background="new 104.5 34.5 50 50" xml:space="preserve">
<path d="M122.487,69.52c-0.173-0.1-0.425-0.192-0.753-0.276c0.306-0.104,0.553-0.233,0.738-0.393
	c0.188-0.161,0.329-0.345,0.427-0.551c0.101-0.207,0.151-0.426,0.151-0.657c0-0.317-0.094-0.609-0.281-0.876
	c-0.188-0.267-0.455-0.47-0.804-0.611c-0.134-0.055-0.294-0.097-0.47-0.131V64.79h-1.184v1.152h-0.763V64.79h-1.185v1.152h-1.808
	v0.967h0.273c0.185,0,0.311,0.017,0.375,0.051c0.064,0.033,0.111,0.079,0.139,0.137c0.027,0.056,0.04,0.188,0.04,0.396v3.903
	c0,0.204-0.013,0.334-0.04,0.393s-0.074,0.104-0.139,0.137c-0.064,0.031-0.19,0.047-0.375,0.047h-0.273v0.967h1.808v1.152h1.185
	v-1.152h0.674c0.03,0,0.06,0,0.089,0v1.152h1.184v-1.25c0.2-0.038,0.375-0.088,0.523-0.147c0.409-0.163,0.726-0.401,0.949-0.714
	c0.226-0.314,0.336-0.656,0.336-1.027c0-0.311-0.073-0.592-0.221-0.845C122.938,69.856,122.739,69.659,122.487,69.52z
	 M119.116,67.069h0.767c0.448,0,0.761,0.028,0.935,0.084c0.173,0.055,0.307,0.147,0.397,0.277c0.093,0.132,0.138,0.29,0.138,0.474
	c0,0.176-0.049,0.332-0.145,0.468c-0.098,0.136-0.242,0.237-0.435,0.303c-0.192,0.068-0.489,0.103-0.891,0.103h-0.767V67.069z
	 M121.283,71.396c-0.138,0.173-0.302,0.288-0.499,0.343c-0.194,0.055-0.44,0.083-0.737,0.083h-0.511c-0.17,0-0.274-0.01-0.313-0.028
	c-0.039-0.017-0.065-0.05-0.083-0.096c-0.012-0.038-0.021-0.163-0.023-0.379v-1.515h0.905c0.399,0,0.692,0.037,0.887,0.11
	c0.192,0.074,0.34,0.182,0.435,0.327c0.098,0.144,0.147,0.317,0.147,0.526C121.49,71.013,121.421,71.221,121.283,71.396z
	 M144.17,60.384c-0.292-0.469-0.908-0.612-1.378-0.317l-4.76,2.976c-0.468,0.292-0.61,0.909-0.317,1.378
	c0.292,0.469,0.908,0.612,1.378,0.317l2.718-1.699c-1.442,4.963-5.777,8.623-11.022,9.104c-0.784,0.071-1.565,0.047-2.341-0.024
	c0.081-0.244,0.152-0.493,0.212-0.748c0.536-2.277,0.153-4.628-1.079-6.618s-3.165-3.381-5.441-3.916
	c-0.663-0.156-1.342-0.235-2.017-0.235c-4.079,0-7.583,2.777-8.521,6.755c-0.536,2.277-0.152,4.628,1.079,6.617
	c1.231,1.99,3.164,3.382,5.441,3.917c0.662,0.156,1.341,0.235,2.016,0.235c3.084,0,5.837-1.589,7.403-4.081
	c0.688,0.098,1.383,0.151,2.081,0.151c0.449,0,0.898-0.021,1.347-0.061c6.108-0.561,11.149-4.842,12.79-10.637l1.694,2.708
	c0.189,0.304,0.516,0.47,0.849,0.47c0.181,0,0.364-0.049,0.529-0.152c0.469-0.293,0.61-0.91,0.317-1.378L144.17,60.384z
	 M120.138,76.124c-0.521,0-1.044-0.062-1.558-0.183c-1.757-0.413-3.248-1.486-4.199-3.021c-0.95-1.536-1.246-3.35-0.832-5.107
	c0.724-3.069,3.426-5.213,6.573-5.213c0.521,0,1.045,0.062,1.559,0.183c1.757,0.412,3.248,1.485,4.199,3.021
	c0.95,1.536,1.246,3.35,0.832,5.106C125.989,73.979,123.285,76.124,120.138,76.124z M140.877,41.11
	c-0.661-0.155-1.337-0.233-2.011-0.233c-3.063,0-5.802,1.564-7.374,4.027c-1.053-0.136-2.125-0.176-3.202-0.079
	c-6.08,0.559-11.103,4.805-12.767,10.561l-1.6-2.727c-0.279-0.477-0.892-0.638-1.368-0.356c-0.477,0.279-0.636,0.892-0.356,1.368
	l2.84,4.842c0.186,0.317,0.52,0.494,0.863,0.494c0.172,0,0.346-0.044,0.505-0.138l4.844-2.841c0.477-0.279,0.636-0.892,0.356-1.368
	s-0.892-0.639-1.368-0.356l-2.798,1.641c1.437-4.975,5.776-8.645,11.03-9.127c0.705-0.064,1.407-0.048,2.105,0.005
	c-0.09,0.265-0.17,0.534-0.235,0.811c-0.536,2.276-0.154,4.627,1.078,6.617c1.231,1.99,3.164,3.382,5.442,3.919
	c0.662,0.155,1.339,0.234,2.014,0.234c4.083,0,7.588-2.778,8.522-6.756C148.506,46.947,145.581,42.221,140.877,41.11z
	 M145.451,51.189c-0.721,3.069-3.425,5.214-6.575,5.214c-0.521,0-1.044-0.062-1.556-0.182c-1.758-0.414-3.249-1.488-4.2-3.024
	c-0.95-1.536-1.246-3.349-0.831-5.105c0.724-3.07,3.428-5.215,6.577-5.215c0.52,0,1.042,0.061,1.553,0.181
	C144.049,43.914,146.307,47.562,145.451,51.189z M141.51,51.269c0,1.067-0.756,1.979-2.135,2.219v1.223h-1.176v-1.139
	c-0.804-0.036-1.583-0.252-2.039-0.516l0.36-1.403c0.504,0.275,1.211,0.527,1.991,0.527c0.684,0,1.151-0.264,1.151-0.743
	c0-0.456-0.384-0.744-1.271-1.044c-1.283-0.432-2.159-1.031-2.159-2.194c0-1.056,0.744-1.883,2.027-2.135v-1.14h1.175v1.056
	c0.804,0.036,1.344,0.203,1.739,0.396l-0.348,1.355c-0.312-0.132-0.863-0.408-1.728-0.408c-0.779,0-1.031,0.336-1.031,0.672
	c0,0.396,0.42,0.647,1.439,1.031C140.934,49.529,141.51,50.188,141.51,51.269z"/>
</svg>
